<?xml version="1.0" encoding="UTF-8"?>
<svg width="62px" height="52px" viewBox="0 0 62 52" version="1.1" xmlns="http://www.w3.org/2000/svg" xmlns:xlink="http://www.w3.org/1999/xlink">
    <title>Shape</title>
    <g id="Page-1" stroke="none" stroke-width="1" fill="none" fill-rule="evenodd">
        <g id="Line-selected" transform="translate(-329.000000, -873.000000)" fill="#E1E2E3" fill-rule="nonzero">
            <g id="noun_Quote_984647" transform="translate(329.000000, 873.000000)">
                <path d="M0,20 C0,8.954305 8.954305,3.55271368e-15 20,3.55271368e-15 C22.209139,3.55271368e-15 24,1.790861 24,4 C23.9514984,6.2081612 22.1585933,7.97893168 19.95,8 C13.3421176,8.02753308 7.99994264,13.3920602 8,20 L8,22 L20,22 C23.3137085,22 26,24.6862915 26,28 L26,46 C26,49.3137085 23.3137085,52 20,52 L6,52 C2.6862915,52 0,49.3137085 0,46 L0,20 Z M36,46 C36,49.3137085 38.6862915,52 42,52 L56,52 C59.3137085,52 62,49.3137085 62,46 L62,28 C62,24.6862915 59.3137085,22 56,22 L44,22 L44,20 C43.9999426,13.3920602 49.3421176,8.02753308 55.95,8 C58.1585933,7.97893168 59.9514984,6.2081612 60,4 C60,1.790861 58.209139,0 56,0 C44.954305,0 36,8.954305 36,20 L36,46 Z" id="Shape"></path>
            </g>
        </g>
    </g>
</svg>